# xmcd CD database file
#
# Track frame offsets:
#	150
#	46112
#	82635
#	102130
#	134137
#	157688
#	174392
#	189812
#	205847
#	227329
#	255343
#	307265
#	327513
#
# Disc length: 4662 seconds
#
# Revision: 5
# Processed by: cddbd v1.5.2PL0 Copyright (c) Steve Scherf et al.
# Submitted via: CDex 1.51
#
DISCID=9712340d
DTITLE=JIMI HENDRIX - 51th Anniversary(The Story Of Life ...)
DYEAR=2003
DGENRE=Hard Rock
TTITLE0=Two Guitars Jam
TTITLE1=S. Francisco Bay Blues
TTITLE2=Gypsy Eyes
TTITLE3=Cherokee Mist
TTITLE4=The Street Things
TTITLE5=In From The Storm
TTITLE6=Freedom
TTITLE7=Somewhere Over The Rainbow II
TTITLE8=Belly Button Window
TTITLE9=Captain Coconut II  - Cherokee Mist
TTITLE10=Rider Blues
TTITLE11=Electric Ladyland Theme
TTITLE12=Jazzy Jamming
EXTD=YEAR: 2003
EXTT0=
EXTT1=
EXTT2=
EXTT3=
EXTT4=
EXTT5=
EXTT6=
EXTT7=
EXTT8=
EXTT9=
EXTT10=
EXTT11=
EXTT12=
PLAYORDER=
